<svg xmlns="http://www.w3.org/2000/svg" xmlns:xlink="http://www.w3.org/1999/xlink" id="Layer_1" viewBox="56 36.41 166.89 102.5"><defs><style>.cls-1{fill:#636677;}.cls-2{fill:url(#New_Gradient_Swatch_6);}.cls-3{fill:url(#New_Gradient_Swatch_5);}</style><linearGradient id="New_Gradient_Swatch_5" x1="58.58" y1="84.1" x2="132.86" y2="84.1" gradientTransform="matrix(1, 0, 0, 1, 0, 0)" gradientUnits="userSpaceOnUse"><stop offset="0" stop-color="#b974b1"/><stop offset="1" stop-color="#8a8cc4"/></linearGradient><linearGradient id="New_Gradient_Swatch_6" x1="132.51" y1="84.26" x2="206.48" y2="84.26" gradientTransform="matrix(1, 0, 0, 1, 0, 0)" gradientUnits="userSpaceOnUse"><stop offset="0" stop-color="#8a8cc4"/><stop offset="1" stop-color="#49a5d2"/></linearGradient></defs><path class="cls-3" d="M132.84,63.39l-3.4-19.88c-.25-1.49-2.3-2-3.33-.82l-13.71,15.65c-.86,.98-.34,2.45,.98,2.77l2.51,.62-9.14,34.09-23.6-40.52c-1.44-2.47-5.15-1.94-5.83,.84l-1.05,4.25-17.69,63.48c1.36-.83,3-1.32,4.75-1.32,3.02,0,5.67,1.43,7.22,3.6l12.97-45.85,23.47,40.66c1.42,2.45,5.09,1.97,5.82-.77l2.55-9.55,12.32-45.99,2.79,.69c1.32,.33,2.56-.71,2.35-1.95Z"/><path class="cls-2" d="M206.46,63.65l-3.4-19.88c-.25-1.49-2.3-2-3.33-.82l-13.71,15.65c-.86,.98-.34,2.45,.98,2.77l2.51,.62-9.14,34.09-23.6-40.52c-1.44-2.47-5.15-1.94-5.83,.84l-1.05,4.25-17.39,62.89c1.31-.74,2.84-1.17,4.49-1.17,3.13,0,5.86,1.54,7.38,3.84l12.77-45.65,23.47,40.66c1.42,2.45,5.09,1.97,5.82-.77l2.55-9.55,12.32-45.99,2.79,.69c1.32,.33,2.56-.71,2.35-1.95Z"/><path class="cls-1" d="M204.31,130.91l-7.37-3.27c-.46-.2-.98,.13-.98,.64v1.97h-5.24c-.58-2.25-2.61-3.92-5.04-3.92s-4.46,1.67-5.04,3.92h-13.68c-.58-2.25-2.61-3.92-5.04-3.92s-4.46,1.67-5.04,3.92h-12.8c-.62-3.44-3.62-6.06-7.24-6.06s-6.62,2.62-7.24,6.06h-13.74c-.58-2.25-2.61-3.92-5.04-3.92s-4.46,1.67-5.04,3.92h-13.68c-.58-2.25-2.61-3.92-5.04-3.92s-4.46,1.67-5.04,3.92h-11.42c-.62-3.44-3.62-6.06-7.24-6.06-4.07,0-7.36,3.3-7.36,7.36s3.3,7.36,7.36,7.36c3.62,0,6.62-2.62,7.24-6.06h11.42c.58,2.25,2.61,3.92,5.04,3.92s4.46-1.67,5.04-3.92h13.68c.58,2.25,2.61,3.92,5.04,3.92s4.46-1.67,5.04-3.92h13.74c.62,3.44,3.62,6.06,7.24,6.06s6.62-2.62,7.24-6.06h12.8c.58,2.25,2.61,3.92,5.04,3.92s4.46-1.67,5.04-3.92h13.68c.58,2.25,2.61,3.92,5.04,3.92s4.46-1.67,5.04-3.92h5.24v1.97c0,.5,.52,.84,.98,.64l7.37-3.27c.55-.25,.55-1.03,0-1.27Z"/><path class="cls-1" d="M222.47,42.74l-7.37-3.27c-.46-.2-.98,.13-.98,.64v1.97h-5.57c-.77-3.25-3.68-5.67-7.16-5.67s-6.39,2.42-7.16,5.67h-11.91c-.71-2.05-2.63-3.53-4.92-3.53s-4.22,1.48-4.92,3.53h-12.05c-.77-3.25-3.68-5.67-7.16-5.67s-6.39,2.42-7.16,5.67h-11.3c-.77-3.25-3.68-5.67-7.16-5.67s-6.39,2.42-7.16,5.67h-13.05c-.71-2.05-2.63-3.53-4.92-3.53s-4.22,1.48-4.92,3.53h-10.91c-.77-3.25-3.68-5.67-7.16-5.67-4.07,0-7.36,3.3-7.36,7.36s3.3,7.36,7.36,7.36c3.76,0,6.85-2.82,7.3-6.45h10.56c.43,2.45,2.56,4.31,5.13,4.31s4.7-1.86,5.13-4.31h12.7c.1,.81,.34,1.58,.68,2.29l5.59-6.38c1.09-1.24,3.25-.71,3.52,.87l1.46,8.52c1.81-1.15,3.08-3.07,3.36-5.3h11.01c.45,3.63,3.54,6.45,7.3,6.45s6.85-2.82,7.3-6.45h11.7c.43,2.45,2.56,4.31,5.13,4.31s4.7-1.86,5.13-4.31h11.56c.1,.81,.34,1.58,.68,2.29l5.59-6.38c1.09-1.24,3.25-.71,3.52,.87l1.46,8.52c1.81-1.15,3.08-3.07,3.36-5.3h5.43v1.97c0,.5,.52,.84,.98,.64l7.37-3.27c.55-.25,.55-1.03,0-1.27Z"/></svg>